<?xml version="1.0" standalone="no"?>
<!DOCTYPE svg PUBLIC "-//W3C//DTD SVG 20010904//EN"
 "http://www.w3.org/TR/2001/REC-SVG-20010904/DTD/svg10.dtd">
<svg version="1.0" xmlns="http://www.w3.org/2000/svg"
 width="500.000000pt" height="500.000000pt" viewBox="0 0 500.000000 500.000000"
 preserveAspectRatio="xMidYMid meet">

<g transform="translate(0.000000,500.000000) scale(0.100000,-0.100000)"
fill="#ffffff" stroke="none">
<path d="M2345 4542 c-346 -296 -632 -639 -795 -954 l-54 -104 -135 33 c-131
31 -375 75 -494 89 l-57 6 0 -357 0 -357 -32 5 c-169 30 -703 36 -729 10 -17
-17 5 -448 31 -628 91 -623 336 -1081 745 -1396 260 -199 586 -324 970 -371
106 -12 560 -16 572 -4 3 3 -6 52 -20 108 -60 242 -87 478 -87 759 0 306 32
527 110 762 41 121 117 297 130 297 9 0 72 -138 111 -243 40 -107 84 -292 106
-436 13 -88 17 -180 17 -376 0 -290 -11 -398 -70 -694 -19 -95 -33 -175 -30
-178 11 -11 469 -7 571 6 863 105 1441 619 1655 1471 58 232 80 404 87 691 l6
236 -63 6 c-148 16 -512 5 -662 -19 l-38 -6 0 357 0 357 -57 -6 c-122 -14
-364 -58 -494 -89 l-136 -33 -59 110 c-176 329 -447 655 -787 944 -81 70 -151
128 -155 129 -4 2 -74 -55 -157 -125z m368 -344 c206 -205 274 -282 385 -439
54 -77 202 -325 202 -340 0 -3 -33 -18 -72 -34 -235 -91 -485 -246 -653 -406
l-76 -72 -52 50 c-178 172 -404 317 -652 418 -49 21 -92 39 -94 41 -6 6 88
175 155 277 79 120 181 250 293 372 86 93 340 334 353 335 4 0 99 -91 211
-202z m-1592 -844 c101 -19 280 -62 286 -68 3 -3 -4 -33 -16 -68 -33 -102 -59
-211 -77 -326 -10 -59 -18 -108 -18 -109 -1 -1 -38 9 -81 22 -44 13 -106 31
-137 39 l-58 17 0 254 c0 142 4 255 9 255 5 0 46 -7 92 -16z m2859 -238 l0
-254 -82 -22 c-46 -12 -108 -31 -138 -41 -30 -10 -55 -19 -56 -19 -1 0 -5 24
-9 53 -13 100 -45 242 -77 344 -17 57 -29 106 -25 109 10 10 324 81 370 83 16
1 17 -17 17 -253z m-2296 80 c134 -51 330 -160 462 -257 64 -47 254 -227 254
-240 0 -5 -18 -38 -40 -74 -68 -111 -137 -259 -193 -418 -6 -15 -27 1 -120 96
-133 135 -283 249 -437 332 l-111 60 7 65 c9 97 40 242 76 358 17 56 33 102
34 102 2 0 32 -11 68 -24z m1709 7 c2 -10 17 -58 31 -107 44 -151 88 -406 69
-406 -5 0 -65 -32 -134 -71 -157 -90 -306 -207 -424 -331 -51 -54 -94 -98 -97
-98 -3 0 -11 19 -17 42 -24 80 -110 269 -166 363 -30 52 -55 98 -55 103 0 16
175 182 254 241 113 85 266 173 397 230 63 28 119 50 125 50 7 1 14 -7 17 -16z
m-2668 -505 l80 -13 6 -395 c6 -425 6 -430 65 -580 114 -291 399 -616 769
-878 55 -39 109 -78 120 -86 16 -11 2 -11 -80 4 -318 57 -569 170 -794 357
-292 243 -485 595 -576 1047 -26 132 -53 353 -57 485 l-3 84 195 -7 c107 -3
231 -11 275 -18z m4012 -115 c-4 -76 -16 -200 -27 -277 -119 -800 -531 -1319
-1200 -1512 -109 -31 -292 -65 -284 -53 3 5 38 31 77 58 352 238 630 532 772
816 107 213 108 222 113 678 3 307 6 389 16 393 36 14 248 32 385 33 l154 1
-6 -137z m-3565 11 l106 -34 7 -118 c27 -473 174 -911 457 -1361 32 -52 57
-95 55 -98 -2 -2 -35 20 -73 49 -333 250 -580 545 -670 803 l-28 80 -4 363 -3
364 23 -7 c13 -4 71 -23 130 -41z m2808 -287 c0 -302 -2 -341 -20 -413 -69
-270 -320 -585 -683 -858 -40 -31 -77 -56 -80 -56 -4 0 17 37 46 83 167 260
296 537 371 796 57 195 95 423 96 562 0 120 5 135 54 152 50 19 198 66 209 67
4 0 7 -150 7 -333z m-2391 97 c184 -112 366 -285 476 -452 l28 -42 -19 -128
c-20 -137 -26 -533 -11 -705 4 -53 4 -86 -2 -83 -17 11 -149 211 -218 333
-159 277 -278 601 -323 878 -18 112 -27 245 -17 245 5 0 44 -21 86 -46z m1908
-41 c-21 -286 -118 -604 -285 -928 -76 -146 -268 -452 -278 -442 -3 2 0 74 7
158 14 184 7 441 -17 631 l-17 137 58 78 c117 157 280 306 446 408 40 25 77
45 83 45 5 0 6 -35 3 -87z"/>
</g>
</svg>
